PathFileType	4	(X/Y/Z)	C:/Users/beibeiliu/ov580/test_trc/User2\sequence.40_training_dense_left.trc
DataRate	CameraRate	NumFrames	NumMarkers	Units	OrigDataRate	OrigDataStartFrame	OrigNumFrames
120	120	15	19	mm	120	100	198
Frame#	Time	ThumbCMC			ThumbMCP			ThumbIP			ThumbTip			IndexMCP			IndexPIP			IndexTip			MiddleMCP			MiddlePIP			MiddleTip			RingMCP			RingPIP			RingTip			PinkyMCP			PinkyPIP			PinkyTip			BackHand1			BackHand2			BackHand3	
		X0	Y0	Z0	X1	Y1	Z1	X2	Y2	Z2	X3	Y3	Z3	X4	Y4	Z4	X5	Y5	Z5	X6	Y6	Z6	X7	Y7	Z7	X8	Y8	Z8	X9	Y9	Z9	X10	Y10	Z10	X11	Y11	Z11	X12	Y12	Z12	X13	Y13	Z13	X14	Y14	Z14	X15	Y15	Z15	X16	Y16	Z16	X17	Y17	Z17	X18	Y18	Z18	
99	0.825	-220.793	25.0059	-15.421	-215.95	48.0134	-39.2066	-198.554	59.8945	-66.6857	-173.313	50.7866	-81.0888	-177.256	24.2944	-88.2146	-150.299	39.1695	-84.5998	-159.736	42.898	-47.3558	-162.638	7.48998	-86.6802	-135.526	28.5269	-72.1504	-156.171	27.026	-36.4754	-146.905	-7.18177	-80.8924	-128.178	11.8574	-68.8353	-147.099	14.3475	-37.9072	-147.68	-23.7898	-64.7731	-123.97	-1.59641	-57.8355	-139.229	2.98386	-30.0922	-196.789	-35.0282	-42.7298	-212.698	-40.1788	-14.9569	-225.549	-9.044	-30.6353	
100	0.833333	-220.95	25.0197	-10.825	-215.707	49.0877	-40.038	-198.422	58.8224	-67.0983	-175.243	53.7929	-86.1676	-179.729	25.0688	-87.7941	-151.552	38.6682	-84.0217	-162.935	40.7181	-46.1749	-159.064	9.96383	-88.7454	-135.546	27.9681	-72.5369	-158.727	28.0084	-37.5399	-150.592	-6.71181	-80.706	-129.391	12.883	-69.1179	-149.804	12.1963	-35.9575	-142.871	-25.1475	-65.9285	-125.189	0.579446	-57.1831	-141.822	3.2221	-28.6796	-196.147	-34.3523	-44.1975	-214.419	-39.1234	-12.1237	-224.518	-5.42093	-31.8358	
101	0.841667	-219.928	27.3213	-16.8498	-210.466	46.4865	-37.3031	-193.427	56.2081	-66.5544	-174.315	56.2163	-86.3853	-179.531	27.0844	-88.428	-152.961	41.5219	-82.4866	-166.323	38.6029	-44.3325	-163.529	9.80217	-86.7465	-136.575	27.564	-67.5691	-158.247	22.9177	-36.6043	-149.982	-4.44201	-81.5534	-128.82	12.9665	-63.0024	-151.324	11.2382	-35.8681	-143.507	-23.6894	-66.8012	-126.932	1.26242	-56.6481	-145.162	0.913212	-26.677	-198.306	-33.8432	-44.8885	-211.207	-39.9395	-16.5323	-225.735	-5.22118	-36.3529	
102	0.85	-218.99	28.9212	-16.9114	-207.366	49.5142	-40.6426	-188.986	59.101	-65.9739	-170.461	61.2891	-86.3591	-177.59	31.523	-89.6983	-152.124	44.0022	-77.1065	-165.209	37.568	-44.5318	-160.647	10.3247	-87.6932	-138.607	30.9507	-68.5467	-160.602	23.1919	-35.3853	-149.171	-6.22581	-80.3198	-131.323	14.0799	-63.1542	-152.961	8.53798	-34.8159	-146.918	-21.8873	-66.9708	-129.032	2.89514	-54.007	-146.537	-1.41135	-26.0882	-197.69	-34.0101	-46.5372	-214.273	-36.8568	-17.9575	-224.578	-7.10893	-36.1677	
103	0.858333	-214.437	27.1324	-15.1521	-203.176	49.2813	-35.9552	-184.681	63.7196	-63.4236	-166.755	66.6475	-83.9722	-176.911	30.4395	-87.2054	-150.479	42.6158	-72.7099	-168.247	36.5307	-40.8841	-161.627	11.6713	-86.4204	-137.504	27.7487	-64.1783	-159.524	23.3452	-34.955	-150.685	-2.94518	-80.94	-131.528	13.7077	-63.5419	-155.611	7.84132	-34.692	-145.72	-21.4897	-69.2864	-129.114	2.51697	-53.8131	-148.785	0.110751	-25.9743	-197.696	-32.4981	-46.7872	-214.066	-37.4058	-18.1301	-223.671	-6.34679	-34.8653	
104	0.866667	-213.32	28.4604	-11.7484	-197.484	50.2215	-34.9998	-177.231	65.1446	-60.4584	-158.279	67.0762	-81.9101	-174.739	32.1863	-85.3717	-147.739	41.0669	-68.8546	-166.781	32.7323	-37.878	-159.213	9.78255	-84.6949	-135.084	26.6911	-64.9337	-162.291	21.9194	-33.1828	-145.429	-3.77666	-80.0345	-128.789	12.1245	-63.1367	-154.074	9.06433	-33.8092	-147.061	-24.0915	-65.9756	-126.629	-0.0987445	-54.1759	-143.007	-0.398627	-25.1949	-197.995	-34.3079	-46.6441	-215.396	-41.5801	-13.6319	-223.903	-2.39724	-31.1403	
105	0.875	-210.101	28.1571	-13.9478	-193.812	51.8694	-31.0991	-171.27	60.4714	-57.3546	-153.219	64.7525	-71.8581	-171.777	33.2025	-82.9848	-143.972	39.6072	-70.8842	-162.94	36.1289	-36.0131	-158.705	12.8617	-84.4512	-131.566	26.0673	-66.0756	-155.683	23.6664	-32.1679	-148.026	-6.85658	-76.9008	-126.348	12.503	-58.8974	-151.922	7.4676	-30.5213	-141.232	-26.6957	-64.608	-121.055	-3.61339	-52.5157	-140.592	1.53962	-27.6147	-198.051	-29.9871	-44.0966	-215.385	-37.7376	-13.5521	-218.239	-4.64729	-33.8955	
106	0.883333	-212.27	31.8768	-11.9212	-196.538	55.8957	-29.7275	-171.38	62.1116	-57.129	-148.674	56.9359	-74.8494	-165.389	30.794	-83.3676	-140.039	40.8426	-68.9171	-157.608	36.939	-37.0988	-151.641	10.3875	-84.3002	-128.362	24.4522	-64.8328	-152.057	19.8336	-30.393	-144.573	-7.67568	-75.4468	-121.397	6.98026	-59.4104	-143.034	6.2823	-30.3622	-138.159	-23.9317	-64.2331	-116.22	-6.11485	-49.2411	-138.102	-2.39405	-20.4499	-192.05	-32.843	-43.0569	-212.485	-38.7635	-11.1833	-219.418	-2.0181	-30.6663	
107	0.891667	-213.731	27.6658	-10.4745	-201.478	51.4218	-35.3851	-179.241	60.0508	-57.2605	-155.351	53.2171	-74.5286	-169.225	28.3814	-83.0917	-139.641	38.8303	-71.4576	-155.456	35.6675	-38.1212	-150.936	8.88381	-83.3338	-127.444	25.0448	-63.3587	-146.738	20.7265	-31.8354	-141.211	-9.41327	-74.627	-118.423	4.93006	-59.7733	-143.179	8.78688	-30.3795	-138.317	-26.7882	-62.4858	-117.922	-5.80244	-50.6524	-136.408	-0.583323	-23.4959	-191.329	-35.5834	-41.2656	-211.398	-39.6659	-10.5922	-219.819	-5.25072	-32.6813	
108	0.9	-217.486	25.9763	-10.9718	-207.896	47.0379	-34.848	-187.467	59.0295	-60.9191	-163.34	51.0329	-73.1963	-170.421	26.8779	-84.1056	-141.056	38.5556	-73.7261	-157.755	40.1759	-39.0508	-153.385	10.1618	-84.6744	-128.25	25.0881	-63.12	-150.317	23.5448	-31.7658	-139.739	-9.27223	-76.0831	-119.836	5.419	-61.0191	-144.004	7.31986	-31.4326	-138.248	-27.516	-61.3788	-117.068	-5.19141	-48.1346	-135.583	1.60232	-24.5642	-193.611	-34.0645	-41.0959	-212.35	-39.9857	-13.1704	-217.431	-6.42232	-32.3085	
109	0.908333	-218.512	24.835	-14.4399	-214.702	49.7743	-37.225	-191.992	57.2989	-62.0228	-166.95	46.2009	-76.3058	-169.664	24.7631	-84.7534	-144.475	37.8139	-77.5585	-155.281	40.2766	-43.3839	-158.56	7.13592	-83.1963	-129.258	25.3355	-66.6061	-147.605	21.1696	-33.2549	-144.161	-9.54945	-76.9359	-123.556	7.83284	-60.09	-142.471	7.23797	-32.6147	-138.72	-28.5293	-62.8881	-121.4	-3.00429	-51.5265	-136.878	0.019696	-23.0867	-195.062	-35.515	-38.2437	-215.532	-40.5482	-11.801	-222.506	-6.72836	-30.9153	
110	0.916667	-222.051	26.8042	-11.2654	-215.1	49.0866	-40.4608	-194.166	55.7215	-65.9129	-171.511	44.2574	-76.8195	-173.41	24.6501	-85.8751	-145.066	35.8335	-75.6811	-156.463	39.8563	-44.3156	-157.87	9.13161	-85.3585	-130.42	23.6442	-67.0091	-154.476	23.4129	-32.3264	-147.433	-8.5821	-78.2359	-124.884	7.54125	-64.0719	-144.627	7.33692	-32.925	-142.843	-26.5441	-63.238	-122.566	-4.44501	-53.1088	-139.166	0.404396	-27.8372	-195.873	-35.7247	-39.051	-215.08	-41.1852	-11.3299	-224.457	-5.5224	-31.7712	
111	0.925	-220.638	26.1218	-13.6062	-214.378	47.2782	-35.7583	-196.372	56.0254	-65.5688	-173.616	50.4291	-83.335	-174.49	25.1976	-86.9472	-146.148	36.2626	-78.7058	-161.685	37.315	-44.0307	-159.378	9.67074	-87.4007	-132.01	22.2843	-69.458	-154.549	21.2542	-33.7165	-146.315	-10.3292	-77.6573	-124.555	6.2072	-63.5045	-146.202	7.38124	-34.1619	-143.775	-30.5736	-62.1472	-120.522	-6.30124	-53.8994	-141.218	-0.307084	-23.2288	-195.68	-32.6364	-44.5591	-215.828	-38.6202	-12.9366	-222.805	-8.15662	-30.8207	
112	0.933333	-220.792	28.3686	-12.8126	-210.273	47.8998	-39.0819	-192.4	55.7624	-66.4177	-170.458	52.5428	-86.6137	-175.363	25.7825	-87.2548	-146.979	40.2789	-75.9245	-165.049	37.1925	-42.9193	-159.594	3.95893	-84.9755	-133.584	24.6473	-70.5169	-153.438	22.7873	-35.3245	-145.554	-9.26856	-78.7544	-125.91	6.61032	-63.2919	-148.987	7.88342	-35.2451	-141.52	-26.9249	-65.0531	-124.102	-5.69217	-54.7729	-144.292	-1.79169	-26.8213	-196.953	-35.4258	-41.3575	-214.784	-38.4962	-15.3462	-223.61	-7.3969	-34.313	
113	0.941667	-217.488	29.4016	-16.4094	-206.309	48.1969	-36.3163	-186.449	58.5122	-65.8198	-166.054	56.4755	-86.7381	-174.654	25.6932	-85.8428	-145.668	38.3192	-72.7928	-164.61	36.1605	-41.4401	-154.245	6.02527	-85.2666	-133.491	24.2354	-67.3153	-160.3	18.0483	-32.5132	-144.998	-8.01745	-79.217	-127.783	7.39744	-62.3283	-152.753	3.98904	-32.411	-143.068	-29.2583	-63.7979	-122.259	-5.65335	-49.5622	-145.264	-4.51742	-23.8063	-198.359	-32.2872	-45.7239	-214.496	-42.2892	-14.4294	-224.128	-6.23269	-31.9837	
